<svg id="Layer_1" data-name="Layer 1" xmlns="http://www.w3.org/2000/svg" viewBox="0 0 32 32"><defs><style>.cls-1{fill:#747987;}</style></defs><title>Running</title><path class="cls-1" d="M26.45,16.65c-2.35-1.09-2.81-4.43-3.11-6.64-.07-.48-.12-.91-.19-1.26a1.92,1.92,0,0,0-1.86-1.56,1.86,1.86,0,0,0-1.92,1.47,4.25,4.25,0,0,0-.11,1.74L16.16,9A4.59,4.59,0,0,0,13.7,5.36a1.8,1.8,0,0,0-2.35,1l-3.6,7.76-.16.05a2,2,0,0,0-1.13,1l-.18.4a2,2,0,0,0,1,2.66l17.92,8.28a1.88,1.88,0,0,0,.84.19,2.09,2.09,0,0,0,.69-.12,2,2,0,0,0,1.12-1l.18-.4a2,2,0,0,0,.07-1.53,1.09,1.09,0,0,0-.08-.15,4.89,4.89,0,0,0,1.3-3.71A4.34,4.34,0,0,0,26.45,16.65ZM15.54,13.09a7.92,7.92,0,0,0,.59-1.93l2.29,1.06a1.91,1.91,0,0,0,1.85-.13,2,2,0,0,0,.9-1.68,4.84,4.84,0,0,1,.07-.94c0,.24.08.52.12.81.09.7.21,1.53.4,2.39l-2.11.78a1,1,0,0,0-.6,1.28,1,1,0,0,0,.94.66.87.87,0,0,0,.35-.07l2-.72a9.37,9.37,0,0,0,.53,1.16l-1.94.71a1,1,0,0,0,.35,1.94,1,1,0,0,0,.34-.06l2.51-.92a5.63,5.63,0,0,0,1.51,1c1,.48,1.61,1,1.71,1.66a3.13,3.13,0,0,1-.89,2.16L14,16.52ZM13.13,7.33c1.21.82,1.5,3,.6,4.92l-1.59,3.43-2.37-1.1ZM26,24.78,8.09,16.49l-.42.91.61-1.31,17.91,8.29Z"/><path class="cls-1" d="M10.17,23.76a1,1,0,0,0,0-2H4.5a1,1,0,0,0,0,2Z"/><path class="cls-1" d="M5.74,26.17a1,1,0,0,0,1,1h7.09a1,1,0,0,0,0-2H6.74A1,1,0,0,0,5.74,26.17Z"/></svg>